HIERARCHY
ROOT Hips
{
  OFFSET 5.72205e-005 65.662 3.42586
  CHANNELS 6 Xposition Yposition Zposition Zrotation Xrotation Yrotation
  JOINT Chest
  {
    OFFSET 0 8.7983 -4.7612
    CHANNELS 6 Xposition Yposition Zposition Zrotation Xrotation Yrotation
    JOINT Chest2
    {
      OFFSET 0 8.0291 0.4195
      CHANNELS 6 Xposition Yposition Zposition Zrotation Xrotation Yrotation
      JOINT Chest3
      {
        OFFSET 0 9.9351 -2.2114
        CHANNELS 6 Xposition Yposition Zposition Zrotation Xrotation Yrotation
        JOINT Neck
        {
          OFFSET 0 22.3885 -0.4656
          CHANNELS 6 Xposition Yposition Zposition Zrotation Xrotation Yrotation
          JOINT Head
          {
            OFFSET -0.0001 12.643 3.4389
            CHANNELS 6 Xposition Yposition Zposition Zrotation Xrotation Yrotation
            End Site
            {
              OFFSET 0.0001 17.6655 0.5274
            }
          }
        }
        JOINT LeftCollar
        {
          OFFSET 2.2603 21.606 7.4023
          CHANNELS 6 Xposition Yposition Zposition Zrotation Xrotation Yrotation
          JOINT LeftShoulder
          {
            OFFSET 13.5163 -1.1332 -5.0146
            CHANNELS 6 Xposition Yposition Zposition Zrotation Xrotation Yrotation
            JOINT LeftElbow
            {
              OFFSET -0.0995 -28.05 -0.2431
              CHANNELS 6 Xposition Yposition Zposition Zrotation Xrotation Yrotation
              JOINT LeftWrist
              {
                OFFSET 0.0679 -23.3996 -0.1402
                CHANNELS 6 Xposition Yposition Zposition Zrotation Xrotation Yrotation
                JOINT LeftFinger1
                {
                  OFFSET 0.7932 -9.069 2.5189
                  CHANNELS 6 Xposition Yposition Zposition Zrotation Xrotation Yrotation
                  JOINT LeftFinger11
                  {
                    OFFSET -0.8272 -3.3923 0.5977
                    CHANNELS 6 Xposition Yposition Zposition Zrotation Xrotation Yrotation
                    JOINT LeftFinger12
                    {
                      OFFSET -0.5649 -2.3158 0.4082
                      CHANNELS 6 Xposition Yposition Zposition Zrotation Xrotation Yrotation
                      End Site
                      {
                        OFFSET -0.4919 -1.6479 0.2673
                      }
                    }
                  }
                }
                JOINT LeftFinger2
                {
                  OFFSET 0.9159 -9.2044 0.2193
                  CHANNELS 6 Xposition Yposition Zposition Zrotation Xrotation Yrotation
                  JOINT LeftFinger21
                  {
                    OFFSET 0.0117 -4.1944 -0.0248
                    CHANNELS 6 Xposition Yposition Zposition Zrotation Xrotation Yrotation
                    JOINT LeftFinger22
                    {
                      OFFSET 0.0071 -2.3249 -0.0142
                      CHANNELS 6 Xposition Yposition Zposition Zrotation Xrotation Yrotation
                      End Site
                      {
                        OFFSET -0.1475 -2.0882 0.0028
                      }
                    }
                  }
                }
                JOINT LeftFinger3
                {
                  OFFSET 0.6113 -8.7231 -2.0637
                  CHANNELS 6 Xposition Yposition Zposition Zrotation Xrotation Yrotation
                  JOINT LeftFinger31
                  {
                    OFFSET -0.1927 -3.8059 -0.2383
                    CHANNELS 6 Xposition Yposition Zposition Zrotation Xrotation Yrotation
                    JOINT LeftFinger32
                    {
                      OFFSET -0.1091 -2.1688 -0.1362
                      CHANNELS 6 Xposition Yposition Zposition Zrotation Xrotation Yrotation
                      End Site
                      {
                        OFFSET -0.2358 -1.9176 -0.0906
                      }
                    }
                  }
                }
                JOINT LeftFinger4
                {
                  OFFSET -0.6151 -8.0947 -3.5641
                  CHANNELS 6 Xposition Yposition Zposition Zrotation Xrotation Yrotation
                  JOINT LeftFinger41
                  {
                    OFFSET -0.4882 -2.341 -0.6462
                    CHANNELS 6 Xposition Yposition Zposition Zrotation Xrotation Yrotation
                    JOINT LeftFinger42
                    {
                      OFFSET -0.3575 -1.7167 -0.4742
                      CHANNELS 6 Xposition Yposition Zposition Zrotation Xrotation Yrotation
                      End Site
                      {
                        OFFSET -0.4187 -1.5237 -0.3496
                      }
                    }
                  }
                }
                JOINT LeftFinger0
                {
                  OFFSET -1.42 -1.8761 1.4223
                  CHANNELS 6 Xposition Yposition Zposition Zrotation Xrotation Yrotation
                  JOINT LeftFinger01
                  {
                    OFFSET -1.1471 -3.4929 2.6334
                    CHANNELS 6 Xposition Yposition Zposition Zrotation Xrotation Yrotation
                    JOINT LeftFinger02
                    {
                      OFFSET -0.823 -2.3 1.6571
                      CHANNELS 6 Xposition Yposition Zposition Zrotation Xrotation Yrotation
                      End Site
                      {
                        OFFSET -0.5822 -1.6914 1.1582
                      }
                    }
                  }
                }
              }
            }
          }
        }
        JOINT RightCollar
        {
          OFFSET -2.2603 21.606 7.4023
          CHANNELS 6 Xposition Yposition Zposition Zrotation Xrotation Yrotation
          JOINT RightShoulder
          {
            OFFSET -13.5187 -1.1334 -5.0155
            CHANNELS 6 Xposition Yposition Zposition Zrotation Xrotation Yrotation
            JOINT RightElbow
            {
              OFFSET 0.0994 -28.0499 -0.2431
              CHANNELS 6 Xposition Yposition Zposition Zrotation Xrotation Yrotation
              JOINT RightWrist
              {
                OFFSET -0.0679 -23.3996 -0.1402
                CHANNELS 6 Xposition Yposition Zposition Zrotation Xrotation Yrotation
                JOINT RightFinger1
                {
                  OFFSET -0.7932 -9.0691 2.5189
                  CHANNELS 6 Xposition Yposition Zposition Zrotation Xrotation Yrotation
                  JOINT RightFinger11
                  {
                    OFFSET 0.8272 -3.3923 0.5977
                    CHANNELS 6 Xposition Yposition Zposition Zrotation Xrotation Yrotation
                    JOINT RightFinger12
                    {
                      OFFSET 0.565 -2.3158 0.4082
                      CHANNELS 6 Xposition Yposition Zposition Zrotation Xrotation Yrotation
                      End Site
                      {
                        OFFSET 0.4919 -1.6479 0.2673
                      }
                    }
                  }
                }
                JOINT RightFinger2
                {
                  OFFSET -0.916 -9.2044 0.2193
                  CHANNELS 6 Xposition Yposition Zposition Zrotation Xrotation Yrotation
                  JOINT RightFinger21
                  {
                    OFFSET -0.0117 -4.1944 -0.0248
                    CHANNELS 6 Xposition Yposition Zposition Zrotation Xrotation Yrotation
                    JOINT RightFinger22
                    {
                      OFFSET -0.0071 -2.3249 -0.0142
                      CHANNELS 6 Xposition Yposition Zposition Zrotation Xrotation Yrotation
                      End Site
                      {
                        OFFSET 0.1475 -2.0882 0.0028
                      }
                    }
                  }
                }
                JOINT RightFinger3
                {
                  OFFSET -0.6113 -8.7231 -2.0637
                  CHANNELS 6 Xposition Yposition Zposition Zrotation Xrotation Yrotation
                  JOINT RightFinger31
                  {
                    OFFSET 0.1927 -3.8059 -0.2383
                    CHANNELS 6 Xposition Yposition Zposition Zrotation Xrotation Yrotation
                    JOINT RightFinger32
                    {
                      OFFSET 0.1091 -2.1688 -0.1362
                      CHANNELS 6 Xposition Yposition Zposition Zrotation Xrotation Yrotation
                      End Site
                      {
                        OFFSET 0.2358 -1.9176 -0.0906
                      }
                    }
                  }
                }
                JOINT RightFinger4
                {
                  OFFSET 0.6151 -8.0947 -3.564
                  CHANNELS 6 Xposition Yposition Zposition Zrotation Xrotation Yrotation
                  JOINT RightFinger41
                  {
                    OFFSET 0.4882 -2.341 -0.6462
                    CHANNELS 6 Xposition Yposition Zposition Zrotation Xrotation Yrotation
                    JOINT RightFinger42
                    {
                      OFFSET 0.3574 -1.7166 -0.4742
                      CHANNELS 6 Xposition Yposition Zposition Zrotation Xrotation Yrotation
                      End Site
                      {
                        OFFSET 0.4187 -1.5237 -0.3496
                      }
                    }
                  }
                }
                JOINT RightFinger0
                {
                  OFFSET 1.4199 -1.8761 1.4221
                  CHANNELS 6 Xposition Yposition Zposition Zrotation Xrotation Yrotation
                  JOINT RightFinger01
                  {
                    OFFSET 1.1472 -3.4929 2.6336
                    CHANNELS 6 Xposition Yposition Zposition Zrotation Xrotation Yrotation
                    JOINT RightFinger02
                    {
                      OFFSET 0.8229 -2.3 1.6571
                      CHANNELS 6 Xposition Yposition Zposition Zrotation Xrotation Yrotation
                      End Site
                      {
                        OFFSET 0.5822 -1.6914 1.1582
                      }
                    }
                  }
                }
              }
            }
          }
        }
      }
    }
  }
  JOINT RightHip
  {
    OFFSET -9.412 3.9771 -0.7758
    CHANNELS 6 Xposition Yposition Zposition Zrotation Xrotation Yrotation
    JOINT RightKnee
    {
      OFFSET -0.7531 -40.938 0
      CHANNELS 6 Xposition Yposition Zposition Zrotation Xrotation Yrotation
      JOINT RightAnkle
      {
        OFFSET 0 -40.1986 0
        CHANNELS 6 Xposition Yposition Zposition Zrotation Xrotation Yrotation
        JOINT RightToe
        {
          OFFSET 0 -4.4182 9.239
          CHANNELS 6 Xposition Yposition Zposition Zrotation Xrotation Yrotation
          End Site
          {
            OFFSET 0 0 6.1981
          }
        }
      }
    }
  }
  JOINT LeftHip
  {
    OFFSET 9.4119 3.9773 -0.7758
    CHANNELS 6 Xposition Yposition Zposition Zrotation Xrotation Yrotation
    JOINT LeftKnee
    {
      OFFSET 0.7532 -40.9383 0
      CHANNELS 6 Xposition Yposition Zposition Zrotation Xrotation Yrotation
      JOINT LeftAnkle
      {
        OFFSET 0 -40.1986 0
        CHANNELS 6 Xposition Yposition Zposition Zrotation Xrotation Yrotation
        JOINT LeftToe
        {
          OFFSET 0 -4.4182 9.239
          CHANNELS 6 Xposition Yposition Zposition Zrotation Xrotation Yrotation
          End Site
          {
            OFFSET 0 0 6.1981
          }
        }
      }
    }
  }
}
MOTION
Frames:	4
Frame Time:	0.0333333
5.72205e-005 65.662 3.42586 0 0 -0 0 8.7983 -4.7612 0 0 -0 0 8.0291 0.4195 0 0 -0 0 9.9351 -2.2114 0 0 -0 0 22.3885 -0.4656 0 0 -0 -0.0001 12.643 3.4389 0 0 -0 2.2603 21.606 7.4023 0 0 -12.5014 13.5163 -1.1332 -5.0146 88.1196 14.2451 10.6914 -0.0995 -28.05 -0.2431 -0.00160068 -0.00239207 0.000740045 0.0679 -23.3996 -0.1402 -8.4365e-005 7.00714e-005 -9.52055e-007 0.7932 -9.069 2.5189 9.93923e-017 -1.98785e-016 -1.59028e-015 -0.8272 -3.3923 0.5977 9.93923e-017 -5.96354e-016 -1.59028e-015 -0.5649 -2.3158 0.4082 -9.93923e-017 -5.96354e-016 -1.59028e-015 0.9159 -9.2044 0.2193 9.93923e-017 -1.98785e-016 -1.59028e-015 0.0117 -4.1944 -0.0248 -0.0128176 0.00232552 8.52707e-005 0.0071 -2.3249 -0.0142 9.93923e-017 5.96354e-016 -0 0.6113 -8.7231 -2.0637 9.93923e-017 -1.98785e-016 -1.59028e-015 -0.1927 -3.8059 -0.2383 -0.0160551 0.00299681 0.000857156 -0.1091 -2.1688 -0.1362 -2.48481e-016 0 3.18055e-015 -0.6151 -8.0947 -3.5641 9.93923e-017 -1.98785e-016 -1.59028e-015 -0.4882 -2.341 -0.6462 -0.0125865 0.0031206 0.00282719 -0.3575 -1.7167 -0.4742 0 1.98785e-016 -0 -1.42 -1.8761 1.4223 9.93923e-017 -1.98785e-016 -1.59028e-015 -1.1471 -3.4929 2.6334 9.93923e-017 -5.96354e-016 -1.59028e-015 -0.823 -2.3 1.6571 -9.93923e-017 -5.96354e-016 -1.59028e-015 -2.2603 21.606 7.4023 -0.865644 0.16582 7.03859 -13.5187 -1.1334 -5.0155 -88.0329 10.2057 -10.5567 0.0994 -28.0499 -0.2431 0.0015593 -0.00248883 -0.000788628 -0.0679 -23.3996 -0.1402 7.87605e-005 4.10553e-005 1.24965e-005 -0.7932 -9.0691 2.5189 -3.97569e-016 -7.95139e-016 3.18055e-015 0.8272 -3.3923 0.5977 -1.98785e-016 -3.97569e-016 3.18055e-015 0.565 -2.3158 0.4082 -1.98785e-016 0 3.18055e-015 -0.916 -9.2044 0.2193 -3.97569e-016 -7.95139e-016 3.18055e-015 -0.0117 -4.1944 -0.0248 0.0129473 0.00231697 -8.70038e-005 -0.0071 -2.3249 -0.0142 9.93923e-017 -7.95139e-016 1.59028e-015 -0.6113 -8.7231 -2.0637 -3.97569e-016 -7.95139e-016 3.18055e-015 0.1927 -3.8059 -0.2383 0.0163314 0.00303369 -0.000872333 0.1091 -2.1688 -0.1362 3.97569e-016 7.95139e-016 -3.18055e-015 0.6151 -8.0947 -3.564 -3.97569e-016 -7.95139e-016 3.18055e-015 0.4882 -2.341 -0.6462 0.0145763 0.00367772 -0.00326275 0.3574 -1.7166 -0.4742 9.93923e-017 -3.97569e-016 -0 1.4199 -1.8761 1.4221 -3.97569e-016 -7.95139e-016 3.18055e-015 1.1472 -3.4929 2.6336 -1.98785e-016 -3.97569e-016 3.18055e-015 0.8229 -2.3 1.6571 -1.98785e-016 0 3.18055e-015 -9.412 3.9771 -0.7758 3.42482 1.32465 -0.0626183 -0.7531 -40.938 0 0.000117508 0.717283 0.000978199 0 -40.1986 0 -3.4257 -2.04197 -0.0604716 8.88178e-016 -4.4182 9.239 6.47761e-025 0 -0 9.4119 3.9773 -0.7758 -3.42483 1.34017 0.0627307 0.7532 -40.9383 -2.22045e-016 -0.000193936 0.682302 -0.0013703 -8.88179e-016 -40.1986 0 3.42574 -2.02253 0.0595886 -8.88178e-016 -4.4182 9.239 -8.45714e-024 0 -7.40531e-025 
11.716 44.4003 6.84113 19.1383 -27.8323 36.6366 2.66454e-015 8.7983 -4.7612 0.735538 1.10873 0.102688 8.88178e-016 8.0291 0.4195 1.46949 2.21867 0.191195 0 9.9351 -2.2114 1.46949 2.21867 0.191195 0 22.3885 -0.4656 -2.73317e-005 10.3694 4.39021e-006 -0.0001 12.643 3.4389 3.05119e-006 5.92481 8.74888e-006 2.2603 21.606 7.4023 -2.14612e-005 -4.80584e-005 -12.5014 13.5163 -1.1332 -5.0146 59.6516 17.6557 9.33441 -0.0995 -28.05 -0.2431 -2.18745 -12.9085 -8.05497 0.0679 -23.3996 -0.1402 -8.41128 1.55695 -0.253724 0.7932 -9.06901 2.5189 -7.15625e-015 -4.77083e-015 -3.18055e-015 -0.8272 -3.3923 0.5977 3.18055e-015 -4.77083e-015 3.18055e-015 -0.5649 -2.3158 0.4082 -2.38542e-015 -4.77083e-015 -6.36111e-015 0.9159 -9.20441 0.2193 -7.15625e-015 -4.77083e-015 -3.18055e-015 0.0117 -4.1944 -0.0248 -0.0128051 0.0023198 8.68258e-005 0.0071 -2.3249 -0.0142 -6.36111e-015 3.18055e-015 -6.36111e-015 0.6113 -8.7231 -2.0637 -7.15625e-015 -4.77083e-015 -3.18055e-015 -0.1927 -3.8059 -0.2383 -0.0160285 0.00298939 0.000858995 -0.1091 -2.1688 -0.1362 4.77083e-015 -1.59028e-015 3.18055e-015 -0.6151 -8.0947 -3.5641 -7.15625e-015 -4.77083e-015 -3.18055e-015 -0.4882 -2.341 -0.6462 -0.0126169 0.00312585 0.00283794 -0.3575 -1.7167 -0.4742 -1.23259e-005 5.10819e-006 -2.51252e-006 -1.42 -1.8761 1.4223 -7.15625e-015 -4.77083e-015 -3.18055e-015 -1.1471 -3.4929 2.6334 3.18055e-015 -4.77083e-015 3.18055e-015 -0.823 -2.3 1.6571 -2.38542e-015 -4.77083e-015 -6.36111e-015 -2.2603 21.606 7.4023 -0.867319 -3.53832 6.98256 -13.5187 -1.1334 -5.0155 -92.0747 -5.96693 -31.6997 0.0994 -28.0499 -0.2431 14.6432 -45.5621 1.06182 -0.0679 -23.3996 -0.1402 -2.6809 -6.11603 -0.0660565 -0.7932 -9.0691 2.5189 -4.46078e-024 -2.67861e-008 -9.54166e-015 0.8272 -3.3923 0.5977 -6.36111e-015 0 -1.59028e-014 0.565 -2.3158 0.4082 2.20679e-006 -1.25584e-005 9.85672e-006 -0.916 -9.2044 0.2193 -4.46078e-024 -2.67861e-008 -9.54166e-015 -0.0117 -4.1944 -0.0248 0.0129447 0.00232012 -8.47963e-005 -0.0071 -2.3249 -0.0142 9.54166e-015 3.18055e-015 -3.18055e-015 -0.6113 -8.7231 -2.0637 -4.46078e-024 -2.67861e-008 -9.54166e-015 0.1927 -3.8059 -0.2383 0.0162887 0.00301682 -0.000861873 0.1091 -2.1688 -0.1362 -3.18055e-015 -3.18055e-015 3.18055e-015 0.6151 -8.0947 -3.564 -4.46078e-024 -2.67861e-008 -9.54166e-015 0.4882 -2.341 -0.6462 0.0146188 0.0036729 -0.00326453 0.3574 -1.7166 -0.4742 -1.21047e-006 8.64132e-007 -9.27274e-007 1.4199 -1.8761 1.4221 -4.46078e-024 -2.67861e-008 -9.54166e-015 1.1472 -3.4929 2.6336 -6.36111e-015 0 -1.59028e-014 0.8229 -2.3 1.6571 2.20679e-006 -1.25584e-005 9.85672e-006 -9.412 3.9771 -0.7758 1.68183 -12.4603 -1.37649 -0.7531 -40.938 7.10543e-015 0.130255 38.2735 -0.898307 0 -40.1986 0 -3.31514 4.50033 -0.415019 0 -4.4182 9.239 2.13143e-007 -3.7024e-007 -1.10455e-008 9.4119 3.9773 -0.7758 2.11687 -9.29988 2.71374 0.7532 -40.9383 0 -0.118769 28.0902 0.833039 1.77636e-015 -40.1986 0 4.85953 12.4229 -1.22028 0 -4.4182 9.239 4.95436e-008 -4.04693e-008 -2.77572e-006 
23.9314 25.0606 4.35489 64.3077 -24.0087 78.933 -8.88179e-016 8.7983 -4.7612 1.45744 2.2124 0.26282 0 8.0291 0.4195 2.90797 4.43076 0.469723 8.88179e-016 9.9351 -2.2114 2.90796 4.43078 0.469716 8.88179e-016 22.3885 -0.4656 -6.5927e-006 20.7389 -6.24507e-007 -0.0001 12.643 3.4389 9.02318e-006 11.8496 7.17927e-006 2.2603 21.606 7.4023 -4.80937e-006 -3.35645e-005 -12.5014 13.5163 -1.1332 -5.0146 30.9697 18.5016 6.62224 -0.0995 -28.05 -0.2431 -4.68232 -25.8165 -16.6321 0.0679 -23.3996 -0.1402 -16.8278 3.11886 -0.280181 0.7932 -9.069 2.5189 7.95139e-016 -4.96962e-015 -3.18055e-015 -0.8272 -3.3923 0.5977 1.77197e-007 2.95919e-006 1.97246e-006 -0.5649 -2.3158 0.4082 2.82942e-006 -1.18278e-006 -7.47714e-007 0.9159 -9.2044 0.2193 7.95139e-016 -4.96962e-015 -3.18055e-015 0.0117 -4.1944 -0.0248 -0.012837 0.00233524 8.05701e-005 0.0071 -2.3249 -0.0142 9.82916e-007 4.75534e-006 7.20267e-007 0.6113 -8.7231 -2.0637 7.95139e-016 -4.96962e-015 -3.18055e-015 -0.1927 -3.8059 -0.2383 -0.015983 0.00298622 0.000849775 -0.1091 -2.1688 -0.1362 3.91884e-006 2.89414e-006 -3.14413e-006 -0.6151 -8.0947 -3.5641 7.95139e-016 -4.96962e-015 -3.18055e-015 -0.4882 -2.341 -0.6462 -0.0126252 0.00312897 0.00283167 -0.3575 -1.7167 -0.4742 3.11354e-006 1.8753e-006 -1.89197e-006 -1.42 -1.8761 1.4223 7.95139e-016 -4.96962e-015 -3.18055e-015 -1.1471 -3.4929 2.6334 1.77197e-007 2.95919e-006 1.97246e-006 -0.823 -2.3 1.6571 2.82942e-006 -1.18278e-006 -7.47714e-007 -2.2603 21.606 7.4023 -0.87262 -7.24236 6.92607 -13.5187 -1.1334 -5.0155 -95.8148 -22.5246 -52.2081 0.0994 -28.0499 -0.2431 111.985 -77.4873 86.4803 -0.0679 -23.3996 -0.1402 -5.38215 -12.2209 -0.0605994 -0.7932 -9.0691 2.5189 1.39453e-006 -2.43184e-007 3.20254e-006 0.8272 -3.3923 0.5977 3.18055e-015 9.54166e-015 -1.59028e-015 0.565 -2.3158 0.4082 4.12932e-006 -1.00682e-005 3.45378e-006 -0.916 -9.2044 0.2193 1.39453e-006 -2.43184e-007 3.20254e-006 -0.0117 -4.1944 -0.0248 0.01297 0.0023163 -8.91244e-005 -0.0071 -2.3249 -0.0142 1.31145e-006 -5.28588e-006 2.48369e-006 -0.6113 -8.7231 -2.0637 1.39453e-006 -2.43184e-007 3.20254e-006 0.1927 -3.8059 -0.2383 0.0162986 0.00302625 -0.000876416 0.1091 -2.1688 -0.1362 8.47837e-007 4.37512e-008 1.44996e-006 0.6151 -8.0947 -3.564 1.39453e-006 -2.43184e-007 3.20254e-006 0.4882 -2.341 -0.6462 0.0145817 0.00366943 -0.00326678 0.3574 -1.7166 -0.4742 1.61233e-006 -5.14692e-006 2.18119e-006 1.4199 -1.8761 1.4221 1.39453e-006 -2.43184e-007 3.20254e-006 1.1472 -3.4929 2.6336 3.18055e-015 9.54166e-015 -1.59028e-015 0.8229 -2.3 1.6571 4.12932e-006 -1.00682e-005 3.45378e-006 -9.412 3.9771 -0.7758 -0.254632 -25.1395 -3.01281 -0.7531 -40.938 0 0.0595779 73.9264 -1.79328 -7.10543e-015 -40.1986 0 -2.95386 11.8402 -0.850629 0 -4.4182 9.239 2.39875e-007 -1.95844e-006 8.07256e-007 9.4119 3.9773 -0.7758 8.45902 -19.5288 5.62465 0.7532 -40.9383 -3.55271e-015 -0.214774 54.4421 1.76669 1.77636e-015 -40.1986 -1.42109e-014 7.10074 27.5494 -2.6851 -7.10543e-015 -4.4182 9.239 2.05957e-007 -7.37237e-007 -1.8817e-006 
29.5594 11.7791 0.439644 90.0018 -4.00327 90.0018 0 8.7983 -4.7612 1.95199 2.98141 0.409134 1.11022e-016 8.0291 0.4195 3.8905 5.97458 0.717706 1.38778e-016 9.9351 -2.2114 3.89051 5.97499 0.717697 3.88578e-016 22.3885 -0.4656 -1.10907e-005 27.9975 -1.09618e-005 -0.0001 12.643 3.4389 -7.39731e-006 15.997 1.01968e-005 2.2603 21.606 7.4023 -1.27717e-005 1.70643e-006 -12.5014 13.5163 -1.1332 -5.0146 11.1748 18.0858 3.25643 -0.0995 -28.05 -0.2431 -6.77367 -34.9086 -23.0661 0.0679 -23.3996 -0.1402 -22.6367 4.13608 0.117474 0.7932 -9.069 2.5189 7.95139e-016 -1.59028e-015 -6.36111e-015 -0.8272 -3.3923 0.5977 7.95139e-016 0 -6.36111e-015 -0.5649 -2.3158 0.4082 -7.95139e-016 -7.95139e-016 -3.18055e-015 0.9159 -9.2044 0.2193 7.95139e-016 -1.59028e-015 -6.36111e-015 0.0117 -4.1944 -0.0248 -0.0128262 0.00232813 7.67229e-005 0.0071 -2.3249 -0.0142 -7.95139e-016 -7.15625e-015 -0 0.6113 -8.7231 -2.0637 7.95139e-016 -1.59028e-015 -6.36111e-015 -0.1927 -3.8059 -0.2383 -0.0160548 0.00300422 0.000850654 -0.1091 -2.1688 -0.1362 -7.95139e-016 1.59028e-015 3.18055e-015 -0.6151 -8.0947 -3.5641 7.95139e-016 -1.59028e-015 -6.36111e-015 -0.4882 -2.341 -0.6462 -0.0125428 0.00311585 0.00281587 -0.3575 -1.7167 -0.4742 -3.49289e-007 -5.56242e-006 9.68551e-007 -1.42 -1.8761 1.4223 7.95139e-016 -1.59028e-015 -6.36111e-015 -1.1471 -3.4929 2.6334 7.95139e-016 0 -6.36111e-015 -0.823 -2.3 1.6571 -7.95139e-016 -7.95139e-016 -3.18055e-015 -2.2603 21.606 7.4023 -0.878584 -9.83524 6.88599 -13.5187 -1.1334 -5.0155 -98.1104 -34.2626 -66.125 0.0994 -28.0499 -0.2431 170.697 -51.8578 137.036 -0.0679 -23.3996 -0.1402 -7.27939 -16.4865 -0.0140704 -0.7932 -9.0691 2.5189 0 0 -1.59028e-015 0.8272 -3.3923 0.5977 3.18055e-015 1.59028e-015 -0 0.565 -2.3158 0.4082 6.36111e-015 0 -1.59028e-015 -0.916 -9.2044 0.2193 0 0 -1.59028e-015 -0.0117 -4.1944 -0.0248 0.0129716 0.00232254 -7.9801e-005 -0.0071 -2.3249 -0.0142 6.36111e-015 -7.95139e-016 -1.59028e-015 -0.6113 -8.7231 -2.0637 0 0 -1.59028e-015 0.1927 -3.8059 -0.2383 0.0163316 0.00302553 -0.000872435 0.1091 -2.1688 -0.1362 1.59028e-014 3.18055e-015 -0 0.6151 -8.0947 -3.564 0 0 -1.59028e-015 0.4882 -2.341 -0.6462 0.0145556 0.00367927 -0.00325941 0.3574 -1.7166 -0.4742 -1.59028e-014 -6.36111e-015 4.77083e-015 1.4199 -1.8761 1.4221 0 0 -1.59028e-015 1.1472 -3.4929 2.6336 3.18055e-015 1.59028e-015 -0 0.8229 -2.3 1.6571 6.36111e-015 0 -1.59028e-015 -9.412 3.9771 -0.7758 -1.96566 -33.6155 -4.78624 -0.7531 -40.938 9.76996e-015 179.999 81.2917 177.43 8.88178e-016 -40.1986 0 -2.54746 16.7703 -1.33861 0 -4.4182 9.239 2.45808e-006 -7.9975e-006 4.55471e-006 9.4119 3.9773 -0.7758 13.4026 -26.5607 8.00292 0.7532 -40.9383 1.33227e-015 -0.152313 72.382 2.46597 1.77636e-015 -40.1986 0 9.25776 38.5189 -4.02744 0 -4.4182 9.239 2.12471e-007 -2.47504e-006 -1.92531e-008 
